<svg width="35" height="40" viewBox="0 0 35 40" fill="none" xmlns="http://www.w3.org/2000/svg">
<path d="M34.3849 21.9004L21.8163 13.4093L22.4048 5.33848C22.615 2.43805 20.3451 0 17.4446 0C14.5442 0 12.3163 2.43805 12.5265 5.33848L13.115 13.4093L0.504423 21.9424C0.210176 22.1526 0 22.4889 0 22.8672V25.1791C0 25.9358 0.7146 26.4822 1.47124 26.3141L6.4314 25.011V26.3982C6.4314 26.7765 6.72565 27.0707 7.10396 27.0707H8.82741C9.20573 27.0707 9.49998 26.7765 9.49998 26.3982V24.1703L13.8716 23.0353L14.6283 33.376L10.0885 35.4778C9.79422 35.6039 9.62608 35.8981 9.62608 36.1924V39.2189C9.62608 39.7233 10.1305 40.1017 10.6349 39.9756L17.4446 37.9579L24.2964 39.8915C24.8008 40.0176 25.3052 39.6393 25.3052 39.1349V36.1083C25.3052 35.8141 25.1371 35.5198 24.8429 35.3937L20.3451 33.334L21.1017 22.9933L25.4313 24.1703V26.3561C25.4313 26.7344 25.7256 27.0287 26.1039 27.0287H27.8274C28.2057 27.0287 28.4999 26.7344 28.4999 26.3561V24.969L33.4181 26.3141C34.1327 26.5243 34.8893 25.9358 34.8893 25.1791V22.8672C34.8893 22.4889 34.6791 22.1526 34.3849 21.9004Z" fill="white"/>
</svg>
